<svg width="19" height="20" viewBox="0 0 19 20" fill="none" xmlns="http://www.w3.org/2000/svg">
<path d="M17.3333 14.0999V16.5999C17.3343 16.832 17.2867 17.0617 17.1937 17.2744C17.1008 17.487 16.9644 17.6779 16.7934 17.8348C16.6224 17.9917 16.4205 18.1112 16.2006 18.1855C15.9808 18.2599 15.7478 18.2875 15.5167 18.2666C12.9523 17.988 10.4892 17.1117 8.32498 15.7083C6.31151 14.4288 4.60443 12.7217 3.32499 10.7083C1.91663 8.53426 1.04019 6.05908 0.766652 3.48325C0.745827 3.25281 0.773214 3.02055 0.847069 2.80127C0.920923 2.58199 1.03963 2.38049 1.19562 2.2096C1.35162 2.03871 1.54149 1.90218 1.75314 1.80869C1.9648 1.7152 2.1936 1.6668 2.42499 1.66658L4.92499 1.66658C5.32941 1.6626 5.72148 1.80582 6.02812 2.06953C6.33476 2.33324 6.53505 2.69946 6.59165 3.09992C6.69717 3.89997 6.89286 4.68552 7.17499 5.44158C7.2871 5.73985 7.31137 6.06401 7.24491 6.37565C7.17844 6.68729 7.02404 6.97334 6.79998 7.19992L5.74165 8.25825C6.92795 10.3445 8.65536 12.072 10.7417 13.2583L11.8 12.1999C12.0266 11.9759 12.3126 11.8215 12.6243 11.755C12.9359 11.6885 13.26 11.7128 13.5583 11.8249C14.3144 12.107 15.0999 12.3027 15.9 12.4083C16.3048 12.4654 16.6745 12.6693 16.9388 12.9812C17.203 13.2931 17.3435 13.6912 17.3333 14.0999Z" stroke="#575757" stroke-width="1.5" stroke-linecap="round" stroke-linejoin="round"/>
</svg>
