<svg width="24" height="25" viewBox="0 0 24 25" fill="none" xmlns="http://www.w3.org/2000/svg">
<path d="M18 8.12109C18 6.52979 17.3679 5.00367 16.2426 3.87845C15.1174 2.75323 13.5913 2.12109 12 2.12109C10.4087 2.12109 8.88258 2.75323 7.75736 3.87845C6.63214 5.00367 6 6.52979 6 8.12109C6 15.1211 3 17.1211 3 17.1211H21C21 17.1211 18 15.1211 18 8.12109Z" stroke="#3A82F8" stroke-width="1.5" stroke-linecap="round" stroke-linejoin="round"/>
<path d="M13.73 21.1211C13.5542 21.4242 13.3019 21.6757 12.9982 21.8506C12.6946 22.0255 12.3504 22.1175 12 22.1175C11.6496 22.1175 11.3054 22.0255 11.0018 21.8506C10.6982 21.6757 10.4458 21.4242 10.27 21.1211" stroke="#3A82F8" stroke-width="1.5" stroke-linecap="round" stroke-linejoin="round"/>
</svg>
