<svg width="59" height="57" viewBox="0 0 59 57" fill="none" xmlns="http://www.w3.org/2000/svg">
<path fill-rule="evenodd" clip-rule="evenodd" d="M27.118 29.9902L13.9254 6.43996C13.6067 5.87104 13.8342 5.16464 14.4337 4.86213C15.033 4.55964 15.7773 4.77561 16.096 5.34453L29.2886 28.8948L31.1599 27.9505C33.5574 26.7405 36.5344 27.6043 37.8093 29.88L38.6058 31.302L47.049 43.032L36.3097 48.4517L32.5893 41.4715L30.3957 42.5248L34.1388 49.5475L29.5347 51.871L24.0098 38.6667L23.2141 37.2458C21.9393 34.9702 22.8495 32.1445 25.247 30.9346L27.118 29.9902ZM32.314 30.0107L26.4012 32.9948C25.2024 33.5997 24.7472 35.0126 25.3847 36.1504L26.1806 37.5712L36.4346 32.3962L35.6387 30.9754C35.0013 29.8377 33.5128 29.4057 32.314 30.0107Z" fill="url(#paint0_linear_611_606)"/>
<path d="M21.84 41.3743C21.4057 40.8795 20.631 40.8124 20.1095 41.2244L20.1115 41.2229L20.0974 41.2335C20.0827 41.2447 20.0571 41.2636 20.0212 41.2893C19.9492 41.3407 19.8359 41.4189 19.684 41.515C19.3795 41.7076 18.9237 41.9704 18.3392 42.2345C17.1672 42.7643 15.5052 43.2879 13.5208 43.2879C12.8419 43.2879 12.2916 43.8102 12.2916 44.4545C12.2916 45.0989 12.8419 45.6212 13.5208 45.6212C15.9614 45.6212 17.9868 44.9781 19.3961 44.3411C20.1022 44.0221 20.6605 43.7013 21.0476 43.4565C21.2413 43.3338 21.393 43.2298 21.4996 43.1536C21.5529 43.1154 21.5951 43.0843 21.6257 43.0612L21.6629 43.0328L21.6751 43.0235L21.6794 43.02L21.6812 43.0186L21.6827 43.0174C22.2042 42.6049 22.2747 41.8693 21.84 41.3743ZM24.3768 47.3074C24.7534 47.8435 24.6007 48.5679 24.0359 48.9252L24.0334 48.9268L24.0296 48.9293L24.0178 48.9366L23.9782 48.961C23.9449 48.9814 23.8978 49.0099 23.8378 49.0454C23.718 49.1161 23.5464 49.2148 23.3302 49.332C22.8987 49.5661 22.2852 49.8766 21.5486 50.1873C20.0971 50.7997 18.0707 51.4545 15.9791 51.4545C15.3003 51.4545 14.75 50.9322 14.75 50.2879C14.75 49.6435 15.3003 49.1212 15.9791 49.1212C17.5751 49.1212 19.2362 48.6094 20.5503 48.0551C21.1964 47.7825 21.7353 47.5096 22.1105 47.3061C22.2977 47.2046 22.4429 47.1211 22.5391 47.0641C22.5871 47.0358 22.6229 47.0142 22.6454 47.0003L22.6691 46.9857L22.6723 46.9838C23.2371 46.6268 24.0004 46.7714 24.3768 47.3074Z" fill="url(#paint1_linear_611_606)"/>
<defs>
<linearGradient id="paint0_linear_611_606" x1="30.4151" y1="4.72534" x2="30.4151" y2="51.871" gradientUnits="userSpaceOnUse">
<stop stop-color="#3A82F8"/>
<stop offset="1" stop-color="#004B9C"/>
</linearGradient>
<linearGradient id="paint1_linear_611_606" x1="18.4375" y1="40.9545" x2="18.4375" y2="51.4545" gradientUnits="userSpaceOnUse">
<stop stop-color="#3A82F8"/>
<stop offset="1" stop-color="#004B9C"/>
</linearGradient>
</defs>
</svg>
