<svg width="34" height="49" viewBox="0 0 34 49" fill="none" xmlns="http://www.w3.org/2000/svg">
<path d="M18.9436 14.3291L21.5817 7.68998C21.6732 7.45986 21.6827 7.20526 21.6085 6.96899C21.5344 6.73271 21.3812 6.52916 21.1746 6.39255C20.9681 6.25594 20.7208 6.19459 20.4744 6.21882C20.2279 6.24305 19.9973 6.35139 19.8214 6.52561L11.6184 14.6458C11.513 14.7501 11.4303 14.875 11.3754 15.0127C11.3204 15.1503 11.2945 15.2979 11.2992 15.446C11.3038 15.5942 11.339 15.7398 11.4025 15.8738C11.466 16.0077 11.5564 16.1271 11.6681 16.2246L11.668 16.2245L14.765 18.9262L11.8696 25.7162C11.7735 25.9403 11.7563 26.1904 11.8207 26.4256C11.8851 26.6608 12.0274 26.8671 12.2243 27.011C12.4212 27.1549 12.661 27.2277 12.9047 27.2176C13.1483 27.2075 13.3813 27.1151 13.5656 26.9555L22.3293 19.3961C22.4412 19.2997 22.532 19.1813 22.5961 19.0482C22.6603 18.9152 22.6964 18.7705 22.7023 18.6229C22.7082 18.4753 22.6838 18.3281 22.6304 18.1904C22.5771 18.0527 22.496 17.9274 22.3922 17.8223L18.9436 14.3291ZM13.7179 24.967L16.1521 19.2585C16.2418 19.0492 16.2627 18.8168 16.2118 18.5948C16.161 18.3728 16.041 18.1727 15.8691 18.0232L12.8585 15.3969L19.6954 8.62904L17.5575 14.0091C17.4803 14.2037 17.4614 14.4166 17.5031 14.6217C17.5448 14.8269 17.6453 15.0155 17.7924 15.1645L21.145 18.5606L13.7179 24.967ZM24.5375 31.3014C27.8288 29.611 30.4565 26.8634 31.9983 23.4999C33.5402 20.1364 33.9068 16.3523 33.0392 12.7554C32.1717 9.15855 30.1203 5.95765 27.2146 3.66692C24.309 1.37619 20.7177 0.128591 17.0176 0.124522C13.3176 0.120452 9.72357 1.36015 6.81288 3.64448C3.90219 5.92882 1.84378 9.12519 0.968298 12.7202C0.0928168 16.3151 0.451081 20.1 1.98554 23.4669C3.52 26.8338 6.14159 29.5871 9.4292 31.2848C9.9998 31.5791 10.4962 31.999 10.8811 32.5129C10.2994 32.567 9.75885 32.8362 9.36507 33.2677C8.97129 33.6993 8.75265 34.2622 8.75189 34.8464V35.1337C8.75159 35.7477 8.99304 36.3371 9.42398 36.7744C8.99304 37.2117 8.75159 37.801 8.75189 38.415V38.7023C8.75159 39.3162 8.99304 39.9056 9.42398 40.3429C8.99304 40.7802 8.75159 41.3696 8.75189 41.9835V42.2708C8.75259 42.8922 8.99975 43.4879 9.43913 43.9273C9.87852 44.3667 10.4743 44.6139 11.0956 44.6146H12.2519L12.6712 45.7877C12.9158 46.4701 13.3651 47.0603 13.9576 47.4779C14.55 47.8955 15.2569 48.1201 15.9818 48.1211H18.0181C18.7429 48.1201 19.4498 47.8955 20.0423 47.478C20.6347 47.0605 21.084 46.4703 21.3287 45.788L21.748 44.6146H22.9043C23.5257 44.6139 24.1214 44.3667 24.5608 43.9273C25.0002 43.4879 25.2474 42.8922 25.2481 42.2708V41.9835C25.2484 41.3696 25.0069 40.7802 24.576 40.3429C25.0069 39.9056 25.2484 39.3162 25.2481 38.7023V38.415C25.2484 37.801 25.0069 37.2117 24.576 36.7744C25.0069 36.3371 25.2484 35.7477 25.2481 35.1337V34.8464C25.2473 34.2596 25.0267 33.6944 24.6298 33.2623C24.2329 32.8301 23.6885 32.5623 23.1039 32.5117C23.4837 32.0047 23.9739 31.5908 24.5375 31.3014V31.3014ZM20.0044 45.3151C19.8575 45.7245 19.588 46.0785 19.2325 46.329C18.8771 46.5795 18.453 46.7143 18.0181 46.7149H15.9818C15.5469 46.7143 15.1228 46.5795 14.7673 46.3289C14.4118 46.0784 14.1423 45.7242 13.9955 45.3148L13.7452 44.6146H20.2547L20.0044 45.3151ZM23.8418 42.2708C23.8415 42.5194 23.7427 42.7577 23.5669 42.9334C23.3911 43.1092 23.1529 43.208 22.9043 43.2083H11.0956C10.8471 43.208 10.6088 43.1092 10.433 42.9334C10.2573 42.7577 10.1584 42.5194 10.1581 42.2708V41.9835C10.1584 41.735 10.2573 41.4967 10.433 41.3209C10.6088 41.1452 10.8471 41.0463 11.0956 41.046H22.9043C23.1529 41.0463 23.3911 41.1452 23.5669 41.3209C23.7427 41.4967 23.8415 41.735 23.8418 41.9835V42.2708ZM23.8418 38.7023C23.8415 38.9508 23.7427 39.1891 23.5669 39.3649C23.3911 39.5406 23.1529 39.6395 22.9043 39.6398H11.0956C10.8471 39.6395 10.6088 39.5406 10.433 39.3649C10.2573 39.1891 10.1584 38.9508 10.1581 38.7023V38.415C10.1584 38.1664 10.2573 37.9281 10.433 37.7524C10.6088 37.5766 10.8471 37.4778 11.0956 37.4775H22.9043C23.1529 37.4778 23.3911 37.5766 23.5669 37.7524C23.7427 37.9281 23.8415 38.1664 23.8418 38.415V38.7023ZM23.8418 34.8464V35.1337C23.8415 35.3823 23.7427 35.6206 23.5669 35.7963C23.3911 35.9721 23.1529 36.071 22.9043 36.0712H11.0956C10.8471 36.071 10.6088 35.9721 10.433 35.7963C10.2573 35.6206 10.1584 35.3823 10.1581 35.1337V34.8464C10.1584 34.5979 10.2573 34.3596 10.433 34.1838C10.6088 34.0081 10.8471 33.9092 11.0956 33.9089H22.9043C23.1529 33.9092 23.3911 34.008 23.5669 34.1838C23.7426 34.3596 23.8415 34.5978 23.8418 34.8464V34.8464ZM21.4639 32.5027H12.5221C11.9873 31.4427 11.1308 30.5792 10.0753 30.0357C7.06749 28.4829 4.66893 25.9642 3.26494 22.8841C1.86094 19.804 1.53301 16.3414 2.33381 13.0525C3.13462 9.76361 5.01768 6.83935 7.68049 4.74949C10.3433 2.65963 13.6313 1.52548 17.0163 1.52924C20.4013 1.533 23.6867 2.67444 26.3449 4.7702C29.0031 6.86597 30.8796 9.7944 31.6731 13.0851C32.4666 16.3757 32.131 19.8376 30.7202 22.9145C29.3094 25.9915 26.9052 28.5049 23.894 30.0511C22.8439 30.5891 21.9926 31.4478 21.4639 32.5026V32.5027Z" fill="url(#paint0_linear_610_612)"/>
<defs>
<linearGradient id="paint0_linear_610_612" x1="16.9995" y1="0.124512" x2="16.9995" y2="48.1211" gradientUnits="userSpaceOnUse">
<stop stop-color="#3A82F8"/>
<stop offset="1" stop-color="#004B9C"/>
</linearGradient>
</defs>
</svg>
