<svg width="48" height="49" viewBox="0 0 48 49" fill="none" xmlns="http://www.w3.org/2000/svg">
<g clip-path="url(#clip0_509_569)">
<path d="M46.8 27.6461C46.95 27.2711 46.8 26.8211 46.425 26.6711C46.05 26.5211 45.6 26.6711 45.45 27.0461C44.625 28.9211 42.45 29.8961 40.575 29.1461C39.525 28.6961 38.775 27.9461 38.55 26.9711C38.325 26.3711 37.65 26.2211 37.275 26.6711C36.225 27.8711 34.575 28.1711 33.075 27.6461C32.625 27.4961 32.1 27.1961 31.8 26.7461C31.575 26.4461 30.75 26.4461 30.525 26.9711C30.15 27.8711 29.475 28.6961 28.5 29.1461C27.15 29.6711 25.65 29.4461 24.525 28.4711C24.225 28.2461 23.775 28.2461 23.475 28.4711C23.1749 28.7711 22.7999 28.9211 22.4249 29.1461C21.512 29.5211 20.4879 29.5211 19.575 29.1461C18.675 28.7711 18 28.0961 17.625 27.1961C17.325 26.3711 16.425 26.5211 16.275 26.6711C15.9 27.0461 15.45 27.4211 14.925 27.6461C13.5 28.2461 11.85 27.8711 10.725 26.6711C10.575 26.5211 9.82495 26.2961 9.44995 26.8961C9.07495 27.5711 8.54995 28.6211 7.34995 29.0711C6.52495 29.4461 5.54995 29.4461 4.64995 29.1461C4.27495 28.9961 3.82495 29.2211 3.67495 29.5961C3.52495 29.9711 3.74995 30.4211 4.12495 30.5711C5.32495 31.0211 6.67495 30.9461 7.87495 30.4961C8.84995 30.0461 9.67495 29.2961 10.275 28.3961C11.775 29.4461 13.65 29.7461 15.375 28.9961C15.75 28.8461 16.05 28.6211 16.35 28.3961C16.875 29.3711 17.775 30.0461 18.75 30.4961C19.425 30.7961 20.1 30.8711 20.775 30.8711C21.45 30.8711 22.2 30.7211 22.875 30.4211C23.175 30.2711 23.475 30.1211 23.85 29.8961C25.35 30.9461 27.15 31.1711 28.875 30.4211C29.925 29.9711 30.75 29.2211 31.275 28.3211C31.575 28.5461 31.95 28.7711 32.325 28.9211C34.0499 29.5961 35.925 29.2961 37.35 28.3211C37.875 29.2211 38.7 29.9711 39.825 30.4211C42.6749 31.5461 45.675 30.2711 46.8 27.6461ZM28.425 2.59607C29.475 3.04607 30.3 3.87107 30.6 5.07107C30.75 5.67107 31.425 5.67107 31.65 5.59607C32.55 5.22107 33.525 5.22107 34.425 5.59607C35.4 6.04607 36.15 6.87107 36.6 7.84607C36.75 8.14607 37.05 8.37107 37.35 8.29607C37.8 8.22107 38.325 8.29607 38.925 8.52107C40.725 9.27107 41.7 11.3711 41.025 13.3211C40.8 13.9211 41.475 14.3711 41.85 14.2961C42.3 14.2211 42.825 14.2961 43.425 14.5211C45.3 15.3461 46.275 17.5211 45.525 19.3961C45.225 20.0711 44.775 20.6711 44.175 21.1211C43.575 21.5711 43.95 22.2461 44.175 22.3961C44.85 22.8461 45.375 23.5211 45.6 24.2711C45.675 24.5711 45.975 24.8711 46.575 24.7211C46.95 24.6461 47.175 24.1211 47.025 23.7461C46.8 22.9961 46.35 22.3211 45.75 21.7211C46.275 21.1961 46.65 20.6711 46.95 19.9961C48 17.3711 46.725 14.2961 44.025 13.1711C43.575 13.0211 43.125 12.8711 42.75 12.8711C43.125 10.4711 41.775 8.14607 39.525 7.17107C38.85 7.02107 38.325 6.87107 37.725 6.87107C37.125 5.67107 36.225 4.77107 34.95 4.24607C33.9 3.79607 32.775 3.72107 31.725 4.02107C31.2 2.74607 30.15 1.77107 28.875 1.24607C28.5 1.09607 28.05 1.32107 27.9 1.69607C27.9 2.07107 28.05 2.44607 28.425 2.59607ZM2.32495 21.8711C0.824951 23.3711 0.299951 25.6211 1.12495 27.6461C1.27495 27.9461 1.64995 28.2461 2.09995 28.0211C2.47495 27.8711 2.69995 27.4211 2.47495 27.0461C1.79995 25.3961 2.39995 23.5961 3.82495 22.4711C4.34995 22.0211 4.04995 21.3461 3.82495 21.2711C3.14995 20.8211 2.69995 20.2211 2.39995 19.5461C2.02488 18.6331 2.02488 17.6091 2.39995 16.6961C2.77495 15.7961 3.52495 15.0461 4.49995 14.6711C5.09995 14.4461 5.62495 14.3711 6.29995 14.3711C6.97495 14.3711 7.12495 13.6211 6.97495 13.3961C6.29995 11.5211 7.27495 9.42107 9.14995 8.67107C9.67495 8.44607 10.2 8.37107 10.725 8.44607C11.1 8.52107 11.4 8.29607 11.55 7.92107C11.85 6.94607 12.6 6.12107 13.65 5.67107C14.625 5.29607 15.525 5.37107 16.425 5.67107C17.1 5.89607 17.4 5.37107 17.475 5.22107C17.775 4.09607 18.6 3.19607 19.65 2.67107C20.925 2.14607 22.4249 2.37107 23.475 3.34607C23.775 3.57107 24.15 3.57107 24.4499 3.34607C24.8249 3.04607 25.2 2.82107 25.65 2.59607C26.025 2.44607 26.25 1.99607 26.1 1.62107C25.95 1.24607 25.5 1.02107 25.125 1.17107C24.75 1.32107 24.375 1.54607 24 1.77107C22.5 0.721073 20.625 0.496073 19.0499 1.24607C17.85 1.77107 16.8 2.74607 16.275 4.02107C15.225 3.79607 14.1 3.87107 13.05 4.24607C11.775 4.77107 10.8 5.67107 10.275 6.87107C9.67495 6.87107 9.07495 7.02107 8.54995 7.24607C6.22495 8.14607 4.94995 10.6211 5.32495 12.9461C4.87495 13.0211 4.49995 13.0961 4.04995 13.3211C2.69995 13.8461 1.72495 14.8211 1.12495 16.0961C0.599951 17.3711 0.599951 18.7961 1.12495 20.0711C1.42495 20.7461 1.79995 21.3461 2.32495 21.8711ZM21 36.9461C21.45 36.9461 21.75 36.6461 21.75 36.1961V33.0461C21.75 32.5961 21.45 32.2961 21 32.2961C20.55 32.2961 20.25 32.5961 20.25 33.0461V36.1961C20.25 36.5711 20.55 36.9461 21 36.9461ZM46.5 45.8711H43.5C43.05 45.8711 42.75 46.1711 42.75 46.6211C42.75 47.0711 43.05 47.3711 43.5 47.3711H46.5C46.95 47.3711 47.25 47.0711 47.25 46.6211C47.25 46.1711 46.95 45.8711 46.5 45.8711ZM40.5 45.8711H30.3C28.65 44.0711 27.75 41.8211 27.75 39.3461V32.9711C27.75 32.5211 27.45 32.2211 27 32.2211C26.55 32.2211 26.25 32.5211 26.25 32.9711V39.3461C26.25 41.7461 27 43.9961 28.35 45.8711H19.65C21 43.9961 21.75 41.7461 21.75 39.3461C21.75 38.8961 21.45 38.5961 21 38.5961C20.55 38.5961 20.25 38.8961 20.25 39.3461C20.25 41.8211 19.35 44.0711 17.7 45.8711H15C14.55 45.8711 14.25 46.1711 14.25 46.6211C14.25 47.0711 14.55 47.3711 15 47.3711H40.5C40.95 47.3711 41.25 47.0711 41.25 46.6211C41.25 46.1711 40.95 45.8711 40.5 45.8711ZM12 45.8711H1.49995C1.04995 45.8711 0.749951 46.1711 0.749951 46.6211C0.749951 47.0711 1.04995 47.3711 1.49995 47.3711H12C12.45 47.3711 12.75 47.0711 12.75 46.6211C12.75 46.1711 12.45 45.8711 12 45.8711Z" fill="url(#paint0_linear_509_569)"/>
<path d="M12.75 9.12109C12.75 9.57109 13.05 9.87109 13.5 9.87109C13.95 9.87109 14.25 9.57109 14.25 9.12109C14.25 8.67109 14.55 8.37109 15 8.37109C15.45 8.37109 15.75 8.07109 15.75 7.62109C15.75 7.17109 15.45 6.87109 15 6.87109C13.725 6.87109 12.75 7.84609 12.75 9.12109ZM44.25 18.1211C44.25 16.8461 43.275 15.8711 42 15.8711C41.55 15.8711 41.25 16.1711 41.25 16.6211C41.25 17.0711 41.55 17.3711 42 17.3711C42.45 17.3711 42.75 17.6711 42.75 18.1211C42.75 18.5711 43.05 18.8711 43.5 18.8711C43.95 18.8711 44.25 18.5711 44.25 18.1211ZM5.25 25.6211C5.25 25.1711 4.95 24.8711 4.5 24.8711C4.05 24.8711 3.75 25.1711 3.75 25.6211C3.75 26.8961 4.725 27.8711 6 27.8711C6.45 27.8711 6.75 27.5711 6.75 27.1211C6.75 26.6711 6.45 26.3711 6 26.3711C5.55 26.3711 5.25 26.0711 5.25 25.6211ZM27 27.8711C28.275 27.8711 29.25 26.8961 29.25 25.6211C29.25 25.1711 28.95 24.8711 28.5 24.8711C28.05 24.8711 27.75 25.1711 27.75 25.6211C27.75 26.0711 27.45 26.3711 27 26.3711C26.55 26.3711 26.25 26.6711 26.25 27.1211C26.25 27.5711 26.55 27.8711 27 27.8711Z" fill="url(#paint1_linear_509_569)"/>
</g>
<defs>
<linearGradient id="paint0_linear_509_569" x1="24.024" y1="0.804443" x2="24.024" y2="47.3711" gradientUnits="userSpaceOnUse">
<stop stop-color="#3A82F8"/>
<stop offset="1" stop-color="#004B9C"/>
</linearGradient>
<linearGradient id="paint1_linear_509_569" x1="24" y1="6.87109" x2="24" y2="27.8711" gradientUnits="userSpaceOnUse">
<stop stop-color="#3A82F8"/>
<stop offset="1" stop-color="#004B9C"/>
</linearGradient>
<clipPath id="clip0_509_569">
<rect width="48" height="48" fill="white" transform="translate(0 0.121094)"/>
</clipPath>
</defs>
</svg>
