<svg width="37" height="49" viewBox="0 0 37 49" fill="none" xmlns="http://www.w3.org/2000/svg">
<path d="M24.0009 24.1219C16.5538 24.1219 10.5028 30.1729 10.5028 37.62V40.6208H11.9977V37.62C11.9977 30.9836 17.3644 25.6223 24.0009 25.6223C30.6373 25.6223 35.9985 30.9836 35.9985 37.62V40.6208H37.4989V37.62C37.4989 30.1729 31.448 24.1219 24.0009 24.1219V24.1219Z" fill="url(#paint0_linear_611_600)"/>
<path d="M9.74982 39.8733C9.74982 39.8733 9.02958 39.8626 8.28818 40.2332C7.54678 40.6039 6.74791 41.3719 6.74902 42.8741C6.75013 44.372 7.54678 45.1388 8.28818 45.5095C9.02958 45.8802 9.74982 45.8694 9.74982 45.8694H38.2519C38.2519 45.8694 38.9721 45.8802 39.7135 45.5095C40.4549 45.1388 41.2508 44.372 41.2527 42.8741C41.2545 41.3719 40.4549 40.6039 39.7135 40.2332C38.9721 39.8625 38.2519 39.8733 38.2519 39.8733H9.74982ZM9.74982 41.3737H38.2519C38.2519 41.3737 38.6544 41.3811 39.038 41.573C39.4217 41.7648 39.7537 42.1219 39.7523 42.8741C39.7508 43.6219 39.4217 43.9779 39.038 44.1697C38.6544 44.3615 38.2519 44.3745 38.2519 44.3745H9.74982C9.74982 44.3745 9.34172 44.3615 8.9581 44.1697C8.57448 43.9779 8.25016 43.6219 8.24942 42.8741C8.24868 42.1219 8.57448 41.7649 8.9581 41.573C9.34172 41.3812 9.74982 41.3737 9.74982 41.3737ZM24.0008 19.6207C21.3983 19.6207 20.0464 20.9799 19.3945 22.2838C18.7425 23.5877 18.7522 24.8694 18.7522 24.8694V25.6223H20.2526V24.8694C20.2526 24.8694 20.2612 23.9054 20.7343 22.9593C21.2074 22.0131 22.1063 21.1211 24.0008 21.1211C25.8954 21.1211 26.7943 22.0131 27.2674 22.9593C27.7405 23.9054 27.7491 24.8694 27.7491 24.8694V25.6223H29.2495V24.8694C29.2495 24.8694 29.2591 23.5877 28.6072 22.2838C27.9553 20.9799 26.6063 19.6207 24.0008 19.6207Z" fill="url(#paint1_linear_611_600)"/>
<path d="M24.0008 2.3689C22.2508 2.3689 21.171 3.35563 20.7066 4.28453C20.2421 5.21344 20.2526 6.12266 20.2526 6.12266V21.1211H21.753V6.12266C21.753 6.12266 21.7609 5.52558 22.0464 4.95445C22.332 4.38333 22.7508 3.8693 24.0008 3.8693C25.2508 3.8693 25.6696 4.38333 25.9552 4.95445C26.2408 5.52558 26.2486 6.12266 26.2486 6.12266V21.1211H27.749V6.12266C27.749 6.12266 27.7595 5.21344 27.295 4.28453C26.8306 3.35563 25.7508 2.3689 24.0008 2.3689ZM24.0008 27.0507C23.8018 27.0507 23.611 27.1298 23.4703 27.2705C23.3297 27.4112 23.2506 27.602 23.2506 27.8009C23.2506 27.9999 23.3297 28.1907 23.4703 28.3314C23.611 28.4721 23.8018 28.5511 24.0008 28.5511C29.0181 28.5511 33.0696 32.6027 33.0696 37.62C33.0696 37.8189 33.1487 38.0097 33.2894 38.1504C33.4301 38.2911 33.6209 38.3702 33.8198 38.3702C34.0188 38.3702 34.2096 38.2911 34.3503 38.1504C34.491 38.0097 34.57 37.8189 34.57 37.62C34.57 31.792 29.8288 27.0507 24.0008 27.0507Z" fill="url(#paint2_linear_611_600)"/>
<defs>
<linearGradient id="paint0_linear_611_600" x1="24.0009" y1="24.1219" x2="24.0009" y2="40.6208" gradientUnits="userSpaceOnUse">
<stop stop-color="#3A82F8"/>
<stop offset="1" stop-color="#004B9C"/>
</linearGradient>
<linearGradient id="paint1_linear_611_600" x1="24.0008" y1="19.6207" x2="24.0008" y2="45.8694" gradientUnits="userSpaceOnUse">
<stop stop-color="#3A82F8"/>
<stop offset="1" stop-color="#004B9C"/>
</linearGradient>
<linearGradient id="paint2_linear_611_600" x1="27.4113" y1="2.3689" x2="27.4113" y2="38.3702" gradientUnits="userSpaceOnUse">
<stop stop-color="#3A82F8"/>
<stop offset="1" stop-color="#004B9C"/>
</linearGradient>
</defs>
</svg>
